<svg width="26" height="19" viewBox="0 0 26 19" fill="none" xmlns="http://www.w3.org/2000/svg">
<path d="M25.0606 1.87605V2.89117C23.827 2.95542 23.1203 3.21241 22.4393 3.4694C21.6426 3.76494 20.8845 4.04763 19.3297 4.04763C17.7749 4.04763 17.1838 3.70069 16.3743 3.40515C15.5904 3.10961 14.6524 2.63417 13.059 2.63417C11.4657 2.63417 10.0394 3.25096 9.25556 3.5465C8.45888 3.84204 8.27898 4.04763 6.72418 4.04763C5.16937 4.04763 4.41124 3.76494 3.61457 3.4694C2.95923 3.21241 2.2782 2.96826 1.10889 2.89117V1.87605C1.10889 0.835226 2.34245 0 3.85871 0H22.3108C23.827 0 25.0606 0.835226 25.0606 1.87605Z" fill="#B2ECC9"/>
<path d="M23.4156 4.42058C22.5547 4.87032 21.5653 5.3843 19.7021 5.3843C17.8389 5.3843 16.8623 4.87032 15.9885 4.42058C15.1662 3.99654 14.4594 3.6239 12.9432 3.6239C11.4269 3.6239 10.7202 3.99654 9.89781 4.42058C9.02403 4.87032 8.04746 5.3843 6.18426 5.3843C4.32107 5.3843 3.33165 4.87032 2.47072 4.42058C1.93104 4.13789 1.44275 3.89374 0.761719 3.73955V16.7562C0.761719 17.8099 1.66119 18.658 2.76626 18.658H23.1972C24.3022 18.658 25.2017 17.8099 25.2017 16.7562V3.7267C24.4821 3.86804 23.9682 4.12504 23.4156 4.42058ZM16.3483 12.7728C16.2841 12.8499 16.2198 12.9399 16.1556 13.017C15.7701 14.3148 15.436 14.9316 14.3823 14.6489C14.2795 14.6232 14.1639 14.5846 14.0482 14.5332C13.3801 14.3919 13.0845 15.3556 12.5834 15.3556C12.0565 15.3556 11.9923 14.6103 11.5811 14.2505C11.5169 14.1991 11.4526 14.1477 11.3755 14.1221C9.66651 15.0729 9.56372 13.1455 9.16538 11.9762C9.12683 11.8734 9.08828 11.7834 9.04973 11.6806C8.90839 11.2823 8.84414 10.8582 8.84414 10.4214C8.84414 8.21122 10.7073 6.42512 12.9946 6.42512C15.2947 6.42512 17.145 8.21122 17.145 10.4214C17.1578 11.2951 16.8495 12.1047 16.3483 12.7728Z" fill="#B2ECC9"/>
</svg>
