<svg xmlns="http://www.w3.org/2000/svg" viewBox="0 0 240 240"><title>icono</title><g id="Capa_6" data-name="Capa 6"><path d="M20,120a20,20,0,0,0,20,20h84.7a2.9,2.9,0,0,1,.68,0,5,5,0,0,1,.17,10l-.51,0-.51,0H105.78v.06l-.78,0a15,15,0,1,0,0,30l.78,0v0h18.91a2.9,2.9,0,0,1,.68,0,5,5,0,0,1-.34,10h-.48a14.73,14.73,0,0,0-4.52.85,15,15,0,0,0,0,28.28,14.36,14.36,0,0,0,3.6.79c.31,0,.61,0,.92,0,1.21,0,2.42-.12,3.63-.22A98.59,98.59,0,0,0,150,215.44a100,100,0,0,0,0-190.86,98.59,98.59,0,0,0-21.83-4.25c-1.21-.1-2.42-.18-3.63-.22-.31,0-.61,0-.92,0a14.36,14.36,0,0,0-3.6.79,15,15,0,0,0,0,28.28,14.73,14.73,0,0,0,4.52.85H125a5,5,0,0,1,.17,10H105.78v0L105,60a15,15,0,0,0,0,30l.78,0V90h18.69a4.24,4.24,0,0,1,.51,0,4.53,4.53,0,0,1,.52,0,5,5,0,0,1,.21,10,4.41,4.41,0,0,1-1.45,0H40A20,20,0,0,0,20,120Z"/></g></svg>