<svg xmlns="http://www.w3.org/2000/svg" viewBox="0 0 240 240"><title>icono</title><g id="Capa_1" data-name="Capa 1"><path d="M208.16,108.33c-3.58-3.09-7.29-6.28-8.21-9.76-1-3.65.66-8.4,2.25-13,1.78-5.15,3.62-10.47,1.59-14s-7.65-4.64-13.06-5.68c-4.72-.9-9.6-1.83-12.22-4.45S175,54,174.06,49.27c-1-5.41-2.1-11-5.68-13.06a7.27,7.27,0,0,0-3.74-.9c-3,0-6.69,1.27-10.23,2.49s-7.36,2.55-10.55,2.55a9.69,9.69,0,0,1-2.43-.29c-3.48-.93-6.67-4.64-9.76-8.22-3.65-4.22-7.41-8.58-11.67-8.58s-8,4.36-11.67,8.58c-3.09,3.58-6.28,7.29-9.76,8.21a9.24,9.24,0,0,1-2.43.3c-3.19,0-6.93-1.29-10.55-2.55s-7.2-2.49-10.23-2.49a7.27,7.27,0,0,0-3.74.9C68,38.27,67,43.86,65.94,49.27c-.9,4.72-1.83,9.6-4.45,12.22S54,65,49.27,65.94c-5.41,1-11,2.1-13.06,5.68s-.19,8.82,1.59,14c1.59,4.58,3.23,9.33,2.26,13-.93,3.48-4.64,6.67-8.22,9.76-4.22,3.65-8.58,7.41-8.58,11.67s4.36,8,8.58,11.67c3.58,3.09,7.29,6.28,8.22,9.76,1,3.65-.67,8.4-2.26,13-1.78,5.15-3.62,10.47-1.59,14s7.65,4.64,13.06,5.68c4.72.9,9.6,1.83,12.22,4.45S65,186,65.94,190.73c1,5.41,2.1,11,5.68,13.06a7.27,7.27,0,0,0,3.74.9c3,0,6.69-1.27,10.23-2.49s7.36-2.55,10.55-2.55a9.69,9.69,0,0,1,2.43.29c3.48.93,6.67,4.64,9.76,8.22,3.65,4.22,7.41,8.58,11.67,8.58s8-4.36,11.67-8.58c3.09-3.58,6.28-7.29,9.76-8.21a9.24,9.24,0,0,1,2.43-.3c3.19,0,6.93,1.29,10.55,2.55s7.2,2.49,10.23,2.49a7.27,7.27,0,0,0,3.74-.9c3.58-2.06,4.64-7.65,5.68-13.06.9-4.72,1.83-9.6,4.45-12.22s7.5-3.55,12.22-4.45c5.41-1,11-2.1,13.06-5.68s.19-8.82-1.59-14c-1.59-4.58-3.23-9.33-2.26-13,.93-3.48,4.64-6.67,8.22-9.76,4.22-3.65,8.58-7.41,8.58-11.67S212.38,112,208.16,108.33ZM150.7,79.63A4.4,4.4,0,0,1,146.29,84H133.57V95.86h13.57a3.26,3.26,0,0,1,3.26,3.25v17.53a3.26,3.26,0,0,1-3.26,3.26H133.57v56.32a3.78,3.78,0,0,1-3.78,3.78H109.9a3.78,3.78,0,0,1-3.78-3.78V119.9H98.56a3.26,3.26,0,0,1-3.26-3.26V99.11a3.26,3.26,0,0,1,3.26-3.25h7.56V78a18,18,0,0,1,18-18h22.14a4.41,4.41,0,0,1,4.41,4.41Z"/></g></svg>