<svg xmlns="http://www.w3.org/2000/svg" viewBox="0 0 240 240"><title>icono</title><g id="Capa_1" data-name="Capa 1"><path d="M219.19,107.39a11.3,11.3,0,0,1-11,12.72H208c-11,0-11-10-22-10s-11,10-22,10-11-10-22-10-11,10-22,10-11-10-22-10-11,10-22,10-11-10-22-10-11,10-22,10h-.18a11.3,11.3,0,0,1-11-12.72,100,100,0,0,1,198.38,0Z"/><path d="M164,139.86c-11,0-11-10-22-10s-11,10-22,10-11-10-22-10-11,10-22,10c-7.14,0-9.64-4.21-13.53-7.17A1.53,1.53,0,0,0,60,133.9v59a27,27,0,0,0,27,27h5.75a7.26,7.26,0,0,0,7.25-7.25V177.28a7.25,7.25,0,0,1,7.25-7.25h25.5a7.25,7.25,0,0,1,7.25,7.25v35.33a7.26,7.26,0,0,0,7.25,7.25H153a27,27,0,0,0,27-27v-59a1.53,1.53,0,0,0-2.46-1.2C173.64,135.63,171.14,139.86,164,139.86Z"/></g></svg>