<svg xmlns="http://www.w3.org/2000/svg" viewBox="0 0 240 240"><title>icono</title><g id="Capa_1" data-name="Capa 1"><path d="M220,168.72c-.52,2.12-1,4.31-1.39,6.46s-.93,4.58-1.46,6.8c-1.66,6.88-4,13-8.9,15.72a14,14,0,0,1-6.83,1.53c-5.52,0-12.2-2.16-18.66-4.29s-13.43-4.39-19.24-4.39a17.56,17.56,0,0,0-4.44.52c-6.35,1.6-12.17,8-17.8,14.15C134.66,212.48,127.78,220,120,220s-14.63-7.53-21.29-14.79c-5.64-6.18-11.46-12.55-17.81-14.15a17.48,17.48,0,0,0-4.43-.52c-5.82,0-12.64,2.24-19.25,4.39-6.45,2.13-13.13,4.29-18.66,4.29a13.92,13.92,0,0,1-6.82-1.53c-4.93-2.69-7.24-8.84-8.9-15.72-.53-2.22-1-4.51-1.46-6.8s-.88-4.33-1.39-6.45C38.57,144.61,68.49,130,100.43,130h39.13C171.49,130,201.43,144.61,220,168.72Z"/><path d="M169.88,70a50,50,0,1,1-50-50A50,50,0,0,1,169.88,70Z"/></g></svg>