<svg xmlns="http://www.w3.org/2000/svg" viewBox="0 0 240 240"><title>icono</title><g id="Capa_1" data-name="Capa 1"><path d="M118,80.05a40,40,0,0,0-29.11,65l-1.5,3.9-2.64,4a1.71,1.71,0,0,0,2.37,2.37l4-2.64,3.9-1.5a40,40,0,1,0,23-71.11Zm25.67,57.42a8.9,8.9,0,0,1-2.22,3.84c-3.43,3.43-9.54,3.47-16.32.75a53.45,53.45,0,0,1-27.14-27.14c-2.72-6.78-2.68-12.89.75-16.32a8.9,8.9,0,0,1,3.84-2.22,12.39,12.39,0,0,1,2-.38,4.93,4.93,0,0,1,2.5,1.35l6.25,6.25a5,5,0,0,1,0,7.07l-4.49,4.55a55.66,55.66,0,0,0,7.23,8.84,66.67,66.67,0,0,0,9.71,7.89l4.49-4.55a5,5,0,0,1,7.07,0l5.38,5.59a4.93,4.93,0,0,1,1.35,2.5A12.39,12.39,0,0,1,143.62,137.47Z"/><path d="M208.16,108.33c-3.58-3.09-7.29-6.28-8.21-9.76-1-3.65.66-8.4,2.25-13,1.78-5.15,3.62-10.47,1.59-14s-7.65-4.64-13.06-5.68c-4.72-.9-9.6-1.83-12.22-4.45S175,54,174.06,49.27c-1-5.41-2.1-11-5.68-13.06a7.27,7.27,0,0,0-3.74-.9c-3,0-6.69,1.27-10.23,2.49s-7.36,2.55-10.55,2.55a9.69,9.69,0,0,1-2.43-.29c-3.48-.93-6.67-4.64-9.76-8.22-3.65-4.22-7.41-8.58-11.67-8.58s-8,4.36-11.67,8.58c-3.09,3.58-6.28,7.29-9.76,8.21a9.24,9.24,0,0,1-2.43.3c-3.19,0-6.93-1.29-10.55-2.55s-7.2-2.49-10.23-2.49a7.27,7.27,0,0,0-3.74.9C68,38.27,67,43.86,65.94,49.27c-.9,4.72-1.83,9.6-4.45,12.22S54,65,49.27,65.94c-5.41,1-11,2.1-13.06,5.68s-.19,8.82,1.59,14c1.59,4.58,3.23,9.33,2.26,13-.93,3.48-4.64,6.67-8.22,9.76-4.22,3.65-8.58,7.41-8.58,11.67s4.36,8,8.58,11.67c3.58,3.09,7.29,6.28,8.22,9.76,1,3.65-.67,8.4-2.26,13-1.78,5.15-3.62,10.47-1.59,14s7.65,4.64,13.06,5.68c4.72.9,9.6,1.83,12.22,4.45S65,186,65.94,190.73c1,5.41,2.1,11,5.68,13.06a7.27,7.27,0,0,0,3.74.9c3,0,6.69-1.27,10.23-2.49s7.36-2.55,10.55-2.55a9.69,9.69,0,0,1,2.43.29c3.48.93,6.67,4.64,9.76,8.22,3.65,4.22,7.41,8.58,11.67,8.58s8-4.36,11.67-8.58c3.09-3.58,6.28-7.29,9.76-8.21a9.24,9.24,0,0,1,2.43-.3c3.19,0,6.93,1.29,10.55,2.55s7.2,2.49,10.23,2.49a7.27,7.27,0,0,0,3.74-.9c3.58-2.06,4.64-7.65,5.68-13.06.9-4.72,1.83-9.6,4.45-12.22s7.5-3.55,12.22-4.45c5.41-1,11-2.1,13.06-5.68s.19-8.82-1.59-14c-1.59-4.58-3.23-9.33-2.26-13,.93-3.48,4.64-6.67,8.22-9.76,4.22-3.65,8.58-7.41,8.58-11.67S212.38,112,208.16,108.33Zm-38.22,14.22A50.23,50.23,0,0,1,120.33,170a49.69,49.69,0,0,1-28.22-8.5l-5.26,2L78,168.94a5.06,5.06,0,0,1-7-7l5.42-8.83,2-5.26A49.69,49.69,0,0,1,70,119.67a50,50,0,1,1,99.94,2.88Z"/></g></svg>