<svg xmlns="http://www.w3.org/2000/svg" viewBox="0 0 240 240"><defs><style>.cls-1{fill:#fff;}</style></defs><title>icono</title><g id="Capa_1" data-name="Capa 1"><path d="M171.83,84.92c-12.37,0-18.15-3-24.83-6.49-6.48-3.38-13.81-7.2-27.74-7.2S98,75.05,91.52,78.43c-6.7,3.49-12.47,6.49-24.82,6.49s-18.14-3-24.83-6.49a57.34,57.34,0,0,0-15-5.92H27a59.44,59.44,0,0,1,18.88,4.26c6.51,2.41,12.59,4.66,25.1,4.66,10.44,0,13.32-1.16,17.67-2.92.85-.35,1.77-.72,2.84-1.11l2.3-.87c6.33-2.42,15.89-6.07,26.44-6.07,10,0,16.67,2.62,22,4.73,1,.4,2,.79,2.94,1.14s1.79.68,2.66,1A49.86,49.86,0,0,0,169,81.44a61.67,61.67,0,0,0,24.93-4.6l.1,0a58.75,58.75,0,0,1,16.81-4.11,58.29,58.29,0,0,0-14.15,5.72C189.94,81.92,184.18,84.92,171.83,84.92ZM24.71,72.09c-.83-.15-1.69-.28-2.59-.39V62c0-10.83,9.22-19.65,20.55-19.65h154c11.33,0,20.55,8.82,20.55,19.65V71.6l-1.22.14V62.19c0-9.56-10.48-17.06-23.86-17.06H48.58c-13.38,0-23.87,7.5-23.87,17.06Z"/><path class="cls-1" d="M196.69,39.86h-154c-12.7,0-23,9.89-23,22.09v12c9.77.83,15.51,3.8,21.06,6.69,6.68,3.49,13,6.78,26,6.78s19.26-3.29,26-6.78c6.53-3.4,13.29-6.91,26.61-6.91s20.07,3.51,26.61,6.91,13,6.78,26,6.78,19.26-3.29,25.94-6.78c5.72-3,11.6-6,21.91-6.75V62c0-12.2-10.29-22.09-23-22.09ZM71,79a59.61,59.61,0,0,1-24.2-4.49,61.55,61.55,0,0,0-19.63-4.43V62.19c0-8.08,9.59-14.61,21.42-14.61H192.16c11.83,0,21.42,6.53,21.42,14.61v7.86a60.14,60.14,0,0,0-20.41,4.46A59.61,59.61,0,0,1,169,79c-12.09,0-16.74-2.65-23-5s-13.37-6-25.78-6-23.49,4.84-29.59,7.1S83.07,79,71,79Z"/><path d="M169,83.57a49.86,49.86,0,0,1-21.16-4.08c-.87-.34-1.75-.69-2.66-1s-1.92-.74-2.93-1.14c-5.32-2.11-12-4.73-22-4.73-10.55,0-20.12,3.65-26.45,6.07l-2.29.87c-1.07.39-2,.76-2.84,1.11-4.35,1.76-7.23,2.92-17.67,2.92-12.51,0-18.59-2.25-25-4.63A59.49,59.49,0,0,0,27,74.65l-2.3-.14V64.32c0-9.56,10.49-17.06,23.87-17.06H192.16c13.38,0,23.86,7.5,23.86,17.06V74.51l-2.32.11A58.25,58.25,0,0,0,194,78.93l-.11,0A61.67,61.67,0,0,1,169,83.57Z"/><path class="cls-1" d="M192.16,49.71c11.83,0,21.42,6.53,21.42,14.61v7.86a60.14,60.14,0,0,0-20.41,4.46A59.61,59.61,0,0,1,169,81.13c-12.09,0-16.74-2.65-23-4.95s-13.37-6-25.78-6S96.75,75,90.65,77.25,83.07,81.13,71,81.13a59.61,59.61,0,0,1-24.2-4.49,61.55,61.55,0,0,0-19.63-4.43V64.32c0-8.08,9.59-14.61,21.42-14.61H192.16m0-4.89H48.58c-14.75,0-26.31,8.57-26.31,19.5V76.81l4.59.28a56.83,56.83,0,0,1,18.2,4.12l0,0A64.52,64.52,0,0,0,71,86c10.41,0,13.69-1.13,18.58-3.11.86-.34,1.75-.7,2.77-1.08.72-.26,1.49-.56,2.33-.88C100.83,78.6,110.14,75,120.24,75c9.59,0,15.7,2.43,21.1,4.56,1,.41,2,.8,3,1.16s1.76.67,2.61,1C152.26,83.85,157.77,86,169,86a64.38,64.38,0,0,0,25.78-4.76l.09,0a55.73,55.73,0,0,1,18.95-4.16l4.66-.22V64.32c0-10.93-11.56-19.5-26.31-19.5Z"/><path d="M40.18,197.42c-10,0-18.06-7.74-18.06-17.26V76c7.29,1,11.92,3.42,16.8,6,6.51,3.39,13.85,7.22,27.78,7.22S87.62,85.5,94.42,82c6.42-3.36,12.45-6.51,24.84-6.51s18.14,3,24.83,6.49,13.81,7.2,27.74,7.2,21.26-3.83,27.74-7.2c5.07-2.64,9.88-5.15,17.67-6.09v104.3c0,9.52-8.1,17.26-18.06,17.26Z"/><path class="cls-1" d="M119.26,77.9c11.77,0,17.3,2.88,23.7,6.22,6.72,3.5,14.34,7.47,28.87,7.47s22.14-4,28.88-7.48c4.4-2.29,8.32-4.34,14.08-5.41V180.16c0,8.17-7,14.81-15.61,14.81h-159c-8.61,0-15.61-6.64-15.61-14.81V78.87c5.3,1.11,9,3.06,13.26,5.25,6.72,3.5,14.34,7.47,28.87,7.47s22.12-4,28.87-7.47c6.39-3.34,11.9-6.22,23.69-6.22m0-4.89c-13,0-19.28,3.29-25.95,6.78S80,86.7,66.7,86.7s-20.08-3.51-26.61-6.91c-5.65-2.94-11-5.76-20.41-6.55V180.16c0,10.88,9.18,19.7,20.5,19.7h159c11.32,0,20.5-8.82,20.5-19.7v-107c-9.89.69-15.42,3.58-21.24,6.62-6.53,3.4-13.3,6.91-26.61,6.91s-20.08-3.51-26.61-6.91c-6.68-3.49-13-6.78-26-6.78Z"/><path class="cls-1" d="M145.78,149.06c-.49.64-1,1.27-1.53,1.9-3,10.12-5.64,14.93-13.75,12.65a23.79,23.79,0,0,1-2.61-.89c-5.18-1.12-7.53,6.39-11.43,6.39-4.11,0-4.62-5.75-7.83-8.64a5.41,5.41,0,0,0-1.56-1c-13.28,7.39-14.06-7.64-17.2-16.65-.32-.76-.61-1.52-.88-2.29a29.94,29.94,0,0,1-1.65-9.82c0-17.17,14.48-31.09,32.34-31.09S152,113.54,152,130.71A30.15,30.15,0,0,1,145.78,149.06Z"/></g></svg>