<svg xmlns="http://www.w3.org/2000/svg" viewBox="0 0 968 968"><title>icono</title><g id="Capa_6" data-name="Capa 6"><path d="M495.3,19.09h0A59.89,59.89,0,0,1,555.19,79v90.28A13.16,13.16,0,0,1,542,182.41H448.58a13.16,13.16,0,0,1-13.16-13.16V79A59.89,59.89,0,0,1,495.3,19.09Z" transform="translate(216.31 -320.72) rotate(45)"/><path d="M414.16,131.41H441a0,0,0,0,1,0,0v60.76a13.4,13.4,0,0,1-13.4,13.4h0a13.4,13.4,0,0,1-13.4-13.4V131.41a0,0,0,0,1,0,0Z" transform="translate(244.37 -252.98) rotate(45)"/><path d="M294.69,22.85h0a32.63,32.63,0,0,1,32.63,32.63v49.18a7.17,7.17,0,0,1-7.17,7.17H269.24a7.17,7.17,0,0,1-7.17-7.17V55.48a32.63,32.63,0,0,1,32.63-32.63Z" transform="translate(55.66 -117.7) rotate(24.87)"/><path d="M265.44,94.49H280a0,0,0,0,1,0,0v33.1a7.3,7.3,0,0,1-7.3,7.3h0a7.3,7.3,0,0,1-7.3-7.3V94.49A0,0,0,0,1,265.44,94.49Z" transform="translate(73.54 -104.08) rotate(24.87)"/><path d="M185.15,152.41l-34.85,19a4.72,4.72,0,0,1-6.88-2.43l-13.52-35c-5-12.82,1-28.64,13.37-35.35h0c12.34-6.71,26.35-1.76,31.3,11.06l13.52,35A6.47,6.47,0,0,1,185.15,152.41Z"/><path d="M175.4,181.74h0a4.82,4.82,0,0,1-7-2.48l-9.1-23.55,10-5.43,9.1,23.54A6.6,6.6,0,0,1,175.4,181.74Z"/><path d="M222,77.57l-14.8,8.05a2,2,0,0,1-2.92-1l-5.74-14.85a12.5,12.5,0,0,1,5.67-15h0c5.24-2.84,11.19-.74,13.29,4.7l5.74,14.86A2.74,2.74,0,0,1,222,77.57Z"/><path d="M217.85,90h0a2,2,0,0,1-3-1L211,79l4.24-2.31,3.86,10A2.79,2.79,0,0,1,217.85,90Z"/><path d="M397.91,59.14l-14.8,8a2,2,0,0,1-2.92-1L374.45,51.3a12.5,12.5,0,0,1,5.68-15h0c5.23-2.84,11.18-.74,13.29,4.7l5.74,14.86A2.76,2.76,0,0,1,397.91,59.14Z"/><path d="M393.77,71.59h0a2,2,0,0,1-3-1l-3.86-10,4.24-2.31,3.87,10A2.8,2.8,0,0,1,393.77,71.59Z"/><path d="M134.55,68l-25-7.39a3.11,3.11,0,0,1-2.06-4.33l10-22.55c3.65-8.26,13.79-12.84,22.65-10.22h0c8.85,2.61,13.06,11.43,9.41,19.69l-10,22.55A4.24,4.24,0,0,1,134.55,68Z"/><path d="M116.38,77.09h0a3.17,3.17,0,0,1-2.11-4.41L121,57.5l7.17,2.12L121.45,74.8A4.34,4.34,0,0,1,116.38,77.09Z"/><path d="M336.68,179l25-7.39a3.1,3.1,0,0,0,2.06-4.33l-10-22.54c-3.65-8.27-13.79-12.84-22.65-10.23h0c-8.85,2.62-13.06,11.44-9.41,19.7l10,22.55A4.24,4.24,0,0,0,336.68,179Z"/><path d="M354.85,188.13h0a3.17,3.17,0,0,0,2.11-4.41l-6.72-15.17-7.17,2.12,6.71,15.17A4.33,4.33,0,0,0,354.85,188.13Z"/><path d="M11.3,19.09h0A59.89,59.89,0,0,1,71.19,79v90.28A13.16,13.16,0,0,1,58,182.41H-35.42a13.16,13.16,0,0,1-13.16-13.16V79A59.89,59.89,0,0,1,11.3,19.09Z" transform="translate(74.55 21.52) rotate(45)"/><path d="M780.6,22.85h0a32.63,32.63,0,0,1,32.63,32.63v49.18a7.17,7.17,0,0,1-7.17,7.17H755.15a7.17,7.17,0,0,1-7.17-7.17V55.48A32.63,32.63,0,0,1,780.6,22.85Z" transform="translate(100.73 -322.07) rotate(24.87)"/><path d="M751.35,94.49H766a0,0,0,0,1,0,0v33.1a7.3,7.3,0,0,1-7.3,7.3h0a7.3,7.3,0,0,1-7.3-7.3V94.49A0,0,0,0,1,751.35,94.49Z" transform="translate(118.61 -308.45) rotate(24.87)"/><path d="M671.06,152.41l-34.85,19a4.72,4.72,0,0,1-6.88-2.43l-13.52-35c-4.95-12.82,1-28.64,13.37-35.35h0c12.33-6.71,26.35-1.76,31.3,11.06l13.52,35A6.47,6.47,0,0,1,671.06,152.41Z"/><path d="M661.3,181.74h0a4.81,4.81,0,0,1-7-2.48l-9.1-23.55,10-5.43,9.09,23.54A6.59,6.59,0,0,1,661.3,181.74Z"/><path d="M707.91,77.57l-14.8,8.05a2,2,0,0,1-2.92-1l-5.74-14.85a12.48,12.48,0,0,1,5.67-15h0c5.24-2.84,11.19-.74,13.29,4.7l5.74,14.86A2.75,2.75,0,0,1,707.91,77.57Z"/><path d="M703.76,90h0a2,2,0,0,1-3-1l-3.87-10,4.25-2.31,3.86,10A2.8,2.8,0,0,1,703.76,90Z"/><path d="M883.82,59.14l-14.8,8a2,2,0,0,1-2.92-1L860.36,51.3a12.51,12.51,0,0,1,5.67-15h0c5.24-2.84,11.19-.74,13.3,4.7l5.74,14.86A2.76,2.76,0,0,1,883.82,59.14Z"/><path d="M879.68,71.59h0a2,2,0,0,1-3-1l-3.86-10,4.24-2.31,3.87,10A2.8,2.8,0,0,1,879.68,71.59Z"/><path d="M620.46,68l-25-7.39a3.12,3.12,0,0,1-2.07-4.33l10-22.55C607,25.46,617.15,20.88,626,23.5h0c8.85,2.61,13.06,11.43,9.4,19.69l-10,22.55A4.24,4.24,0,0,1,620.46,68Z"/><path d="M602.29,77.09h0a3.16,3.16,0,0,1-2.11-4.41L606.9,57.5l7.17,2.12L607.35,74.8A4.32,4.32,0,0,1,602.29,77.09Z"/><path d="M822.59,179l25-7.39a3.1,3.1,0,0,0,2.07-4.33l-10-22.54c-3.66-8.27-13.8-12.84-22.65-10.23h0c-8.85,2.62-13.06,11.44-9.41,19.7l10,22.55A4.26,4.26,0,0,0,822.59,179Z"/><path d="M840.76,188.13h0a3.17,3.17,0,0,0,2.11-4.41l-6.72-15.17L829,170.67l6.72,15.17A4.33,4.33,0,0,0,840.76,188.13Z"/><path d="M497.21,19.09h0A59.89,59.89,0,0,1,557.1,79v90.28a13.16,13.16,0,0,1-13.16,13.16H450.48a13.16,13.16,0,0,1-13.16-13.16V79a59.89,59.89,0,0,1,59.89-59.89Z" transform="translate(216.87 -322.07) rotate(45)"/><path d="M416.06,131.41h26.8a0,0,0,0,1,0,0v60.76a13.4,13.4,0,0,1-13.4,13.4h0a13.4,13.4,0,0,1-13.4-13.4V131.41a0,0,0,0,1,0,0Z" transform="translate(244.93 -254.33) rotate(45)"/></g></svg>