<svg xmlns="http://www.w3.org/2000/svg" viewBox="0 0 294.75 141.5"><defs><style>.cls-1{fill:#0944a9;}.cls-2{fill:#20add0;}.cls-3{fill:#7ecfe2;}</style></defs><title>icono</title><g id="Capa_1" data-name="Capa 1"><path class="cls-1" d="M32,13.87h1.81q9.36.45,14.91,4.73c3.7,2.86,5.54,5.72,5.54,8.61a6.93,6.93,0,0,1-1.57,4.59,7.61,7.61,0,0,1-4.82,2.44,9.11,9.11,0,0,1-1.54.09,10.11,10.11,0,0,1-5.54-1.58,5,5,0,0,1-2.66-3.83c-.12-.78.33-1.7,1.35-2.75a4.42,4.42,0,0,0,1.54-2.84,5.25,5.25,0,0,0-1.76-3.87q-1.84-1.91-5.82-1.9a8.09,8.09,0,0,0-8.2,8.12q0,4.59,5.59,8l3.52,2.21c2.16,1.35,4.34,2.71,6.53,4.1S44.8,42.47,46,43.25c1.86,1.32,3.16,2.25,3.88,2.8a43.49,43.49,0,0,1,3.47,3.1A14.89,14.89,0,0,1,56.82,54a16.29,16.29,0,0,1-2.48,16.36,22.35,22.35,0,0,1-9.87,6.76,42.27,42.27,0,0,1-13.25,2.34h-.54q-10.55,0-17-5T6.17,63.35a10.7,10.7,0,0,1,1.3-7.75,9.08,9.08,0,0,1,5.64-4.51,6,6,0,0,1,2.34-.45,11.75,11.75,0,0,1,6.26,1.8q2.92,1.81,3,4c.12.78-.33,2.06-1.35,3.83a17.1,17.1,0,0,0-1.89,4.19,8.64,8.64,0,0,0,1.71,7.66,10.22,10.22,0,0,0,7.39,3.43h.72a9,9,0,0,0,7-2.75,11.69,11.69,0,0,0,2.84-7.08,11.39,11.39,0,0,0-.64-4.82A10.72,10.72,0,0,0,38,57a28,28,0,0,0-2.61-2.39c-.6-.45-1.48-1-2.62-1.75q-4.5-2.89-9.19-5.68c-.06-.06-.54-.35-1.44-.86s-1.56-.9-2-1.17-1.12-.74-2.08-1.4a16.26,16.26,0,0,1-2.25-1.8c-.54-.54-1.23-1.22-2.07-2a10.33,10.33,0,0,1-1.94-2.43c-.45-.81-.92-1.72-1.4-2.71a10.29,10.29,0,0,1-1-3.11,14.41,14.41,0,0,1,0-3.42q.63-6.59,6.85-10.46T32,13.87Z"/><path class="cls-1" d="M81.38,45.61a7.92,7.92,0,0,1,3.83-2.7,14.55,14.55,0,0,1,5-.93,15.81,15.81,0,0,1,12.31,5.73,19.54,19.54,0,0,1,5,13.31,19.83,19.83,0,0,1-4.84,13.48,16,16,0,0,1-12.67,5.57c-3.87,0-6.78-1-8.71-2.91V88.3c0,1.29.84,2.83,2.54,4.64s2.54,3,2.54,3.59v.64a1.07,1.07,0,0,1-1.21,1.21H64.19c-.86,0-1.29-.38-1.29-1.13a3,3,0,0,1,0-1.69,7.49,7.49,0,0,1,1.61-1.86A23,23,0,0,0,67,91a4.21,4.21,0,0,0,1-2.83V55.29a5.7,5.7,0,0,0-.8-3.3,5.3,5.3,0,0,0-2.34-1.78,16.15,16.15,0,0,1-1.78-.81,2.29,2.29,0,0,1-.61-1.61,1.84,1.84,0,0,1,.69-1.61,37.07,37.07,0,0,1,6.9-2.71,25.58,25.58,0,0,1,7-1.33c2.15,0,3.44,1.27,3.87,3.79C81,45.93,81.16,45.83,81.38,45.61ZM92,76.68q6.12-1.22,3.22-17-2.65-13.47-8.39-13.47a4.51,4.51,0,0,0-1,.08q-6.28,1.36-3.55,16A32.83,32.83,0,0,0,85.61,72.8c1.53,2.69,3.3,4,5.29,4A5,5,0,0,0,92,76.68Z"/><path class="cls-1" d="M149.86,74.89q2.47,2.07-.31,3.75A15.16,15.16,0,0,1,142.77,80q-7.17-.94-9.09-10.44a3,3,0,0,0-.08-.48c-.32-1.43-.61-2.59-.87-3.47a9.46,9.46,0,0,0-1.6-2.87,3.84,3.84,0,0,0-2.95-1.63h-.32a4,4,0,0,0-3.58,2,8.31,8.31,0,0,0-1,5.3A6.07,6.07,0,0,0,126,73.06a9.52,9.52,0,0,0,5.46,1.59.48.48,0,0,1,.32-.08,1.91,1.91,0,0,1,.64.24,1.57,1.57,0,0,1,.16.8,8,8,0,0,1-3.35,2.91,13.06,13.06,0,0,1-6.14,1.31A15.53,15.53,0,0,1,114,77.08a9.72,9.72,0,0,1-4.18-8,9.33,9.33,0,0,1,4.1-8.37,17.64,17.64,0,0,1,9.61-3.27,5.84,5.84,0,0,0,.64,0l.63,0a13.44,13.44,0,0,1,7.58,1.84,11.05,11.05,0,0,1-.2-1.16c-.08-.56-.15-1-.2-1.23q-1.12-7.66-2.63-10a4.37,4.37,0,0,0-3.67-2.23q-3.9,0-2.55,3.51a8.72,8.72,0,0,1,1.12,3.5,3.25,3.25,0,0,1-1.76,2.79,7.35,7.35,0,0,1-4.06,1.12,6.16,6.16,0,0,1-4.07-1.47,4.74,4.74,0,0,1-1.75-3.79c0-2.5,1.3-4.46,3.9-5.9A19.68,19.68,0,0,1,126,42.21c1,0,1.75,0,2.23.08q13.8.8,16.26,12.91,0,.48,2.32,13Q147.88,72.9,149.86,74.89Z"/><path class="cls-1" d="M194.1,63.46a2.53,2.53,0,0,1,1.33.58,1.15,1.15,0,0,1,.34,1l-1,11.52A3.59,3.59,0,0,1,193.39,79a4.51,4.51,0,0,1-2.88,1H157.94a1.9,1.9,0,0,1-1.71-.83,1.31,1.31,0,0,1,.13-1.67l20.87-31.31a.78.78,0,0,0,0-1,1.09,1.09,0,0,0-1-.55h-3.76q-3.84,0-7.47,4.64a27.89,27.89,0,0,0-4.8,8.3,1.82,1.82,0,0,1-1.92,1.09,3,3,0,0,1-1.3-.54,1.09,1.09,0,0,1-.37-1l1.08-11.52A3.31,3.31,0,0,1,159,43.13a4.17,4.17,0,0,1,2.75-1h32.15v.08a1.73,1.73,0,0,1,1.29.84,1.29,1.29,0,0,1-.12,1.42L184.54,60.24q-8,12-10.56,15.91a.7.7,0,0,0,0,.92,1,1,0,0,0,.91.5h5.18q3.68,0,7.26-4.68a28.34,28.34,0,0,0,4.76-8.34C192.32,63.82,193,63.46,194.1,63.46Z"/><path class="cls-1" d="M268.39,42.13q9,0,14.87,5.45A17.62,17.62,0,0,1,289.11,61a18,18,0,0,1-5.69,13.56q-5.69,5.46-15,5.45t-15-5.45A18,18,0,0,1,247.66,61a17.56,17.56,0,0,1,5.89-13.4A21,21,0,0,1,268.39,42.13ZM272,76.64q3.51-.86,4.32-5.76a27.36,27.36,0,0,0-.74-11.14,34.28,34.28,0,0,0-4-10.09q-2.46-3.85-5.49-3.86a4.58,4.58,0,0,0-1,.16q-3.51.86-4.44,5.72a26.73,26.73,0,0,0,.54,11.18,30,30,0,0,0,3.7,10.05q2.46,3.9,5.73,3.9A4.5,4.5,0,0,0,272,76.64Z"/><path class="cls-1" d="M22.48,126.57c0,.2-.1.29-.33.29a3.1,3.1,0,0,1-1-.37,7,7,0,0,1-1-.54,10,10,0,0,1-5.77,1.66A8.09,8.09,0,0,1,8,124.69,9.9,9.9,0,0,1,5.64,118,10.09,10.09,0,0,1,8,111.17a8.07,8.07,0,0,1,6.45-2.92,8.5,8.5,0,0,1,3.92,1,7.88,7.88,0,0,1,3,2.63.85.85,0,0,1,.17.39,4.57,4.57,0,0,1-.95,1.22c-.63.7-1,1-1.09,1s-.34-.27-.81-.81a8.26,8.26,0,0,0-1.61-1.49,4.48,4.48,0,0,0-2.52-.81,5,5,0,0,0-4.11,2.09,7.59,7.59,0,0,0,0,9,5,5,0,0,0,4.1,2.11,7.93,7.93,0,0,0,4.45-1.33c0-.23-.1-1.07-.23-2.51-.1-1-.16-1.86-.16-2.51,0-.15.1-.22.29-.22l.76,0,.75,0,.77,0,.77,0c.19,0,.28.14.28.43s0,.77,0,1.39,0,1.09,0,1.4c0,1.27.09,3,.25,5.17Z"/><path class="cls-1" d="M38.93,124.56a2.24,2.24,0,0,1-.11.61c-.07.33-.12.54-.14.61,0,.32-.09.78-.19,1.39a.31.31,0,0,1-.34.24,3.67,3.67,0,0,1-.5-.06,40.52,40.52,0,0,0-5-.23c-.64,0-1.62,0-2.91,0s-2.27,0-2.92,0c-.29,0-.44-.13-.44-.38,0-1,.06-2.48.17-4.46s.17-3.47.17-4.46-.06-2.88-.16-5.63c0-.7-.07-1.76-.15-3.16v-.19c0-.2.1-.3.34-.3.62,0,1.55,0,2.78,0s2.17,0,2.79,0,1.47,0,2.65,0,2.06,0,2.66,0c.41,0,.64.13.67.38a19.36,19.36,0,0,1,.28,2.17c0,.21-.1.31-.29.31-.75,0-1.89,0-3.41-.13s-2.67-.12-3.44-.12a2.13,2.13,0,0,0-1.37.29,2.3,2.3,0,0,0-.28,1.44v2a5.25,5.25,0,0,0,0,.94c.07.27.3.41.68.41l.45,0h.45c1.74,0,3.29,0,4.67-.09.54,0,1.17-.06,1.9-.13.19,0,.28.06.28.24a11.61,11.61,0,0,1-.1,1.29c-.06.59-.1,1-.1,1.32s-.13.23-.39.23l-1.18-.09c-.5,0-1.61-.08-3.34-.08-1.46,0-2.38,0-2.77.06a.6.6,0,0,0-.61.55,8.85,8.85,0,0,1,0,1v2c0,.92.14,1.49.42,1.72a3,3,0,0,0,1.66.28h1.45c.62,0,2.36-.11,5.21-.32h.2C38.84,124.21,38.93,124.32,38.93,124.56Z"/><path class="cls-1" d="M55.29,124.35a11.56,11.56,0,0,1-.2,2.63.44.44,0,0,1-.46.39q-1,0-2.94-.12c-1.31-.07-2.29-.11-2.94-.11l-2.77,0c-1.23,0-2.15,0-2.77,0a.29.29,0,0,1-.33-.33c0-1,0-2.41.1-4.36s.1-3.4.1-4.37,0-2.56-.14-4.6S42.8,110,42.8,109q0-.3.33-.3l.73,0c.33,0,.57,0,.74,0s.41,0,.74,0l.75,0c.21,0,.31.09.31.26,0,.93,0,2.34-.1,4.22s-.11,3.3-.11,4.24v2.09c0,.94,0,1.64,0,2.1q0,2.94.24,2.94c3.26,0,5.71-.08,7.38-.24l.6-.1a3.51,3.51,0,0,1,.61-.07C55.2,124.1,55.29,124.18,55.29,124.35Z"/><path class="cls-1" d="M75,127.06c0,.11-.11.16-.32.16s-.41,0-.73,0l-.74,0-.75,0c-.34,0-.59,0-.76,0s-.56-.67-.94-2-.78-2-1.18-2-1.18,0-2.55,0H65c-1.45,0-2.28,0-2.49,0s-.65.71-1,2-.63,2-.83,2h-3c-.17,0-.26-.06-.26-.18a2.32,2.32,0,0,1,.18-.6l3.25-8.87q.41-1.08,2.49-6.19c.25-.57.58-1.42,1-2.56.11-.33.23-.5.35-.5a5.17,5.17,0,0,1,.74.07,6.64,6.64,0,0,0,.74.06,5,5,0,0,0,.72-.07,5.09,5.09,0,0,1,.71-.07c.08,0,.19.16.33.49.22.49,1.26,3.15,3.14,8Q75,127,75,127.06Zm-6.17-7.31a22.58,22.58,0,0,0-1.19-3.44c-.77-2-1.32-3.28-1.63-3.9q-2.75,7-2.75,7.33c0,.3.34.48,1,.53H67C68.23,120.28,68.86,120.1,68.86,119.75Z"/><path class="cls-1" d="M90.66,111.14c0,.23-.08.35-.24.35l-4.68-.16q-.12,4-.12,6.47c0,1,0,2.54.11,4.57s.11,3.56.11,4.57c0,.19-.13.28-.38.28s-.4,0-.73,0l-.74,0-.73,0c-.33,0-.57,0-.73,0a.29.29,0,0,1-.33-.33c0-1,0-2.52.12-4.54s.13-3.53.13-4.55q0-2.35-.15-6.47c-2.27.14-3.94.21-5,.21-.11,0-.16-.05-.16-.13a2.91,2.91,0,0,1,.12-.69c.1-.39.15-.62.17-.69a10.27,10.27,0,0,1,.19-1.29.23.23,0,0,1,.22-.17l.16,0q4.69.27,6.19.27c.88,0,2.32-.06,4.33-.2a12.42,12.42,0,0,0,1.71-.13c.22,0,.35.08.38.24a7.74,7.74,0,0,0,0,1.29c0,.11,0,.29,0,.53A4.65,4.65,0,0,1,90.66,111.14Z"/><path class="cls-1" d="M111.58,117.92a9.83,9.83,0,0,1-2.52,6.77,8.71,8.71,0,0,1-13,0,10.33,10.33,0,0,1,0-13.56,8.63,8.63,0,0,1,13,0A9.81,9.81,0,0,1,111.58,117.92Zm-3.19,0a6.77,6.77,0,0,0-1.62-4.51,5.31,5.31,0,0,0-4.25-2,5.22,5.22,0,0,0-4.21,2.06,7.23,7.23,0,0,0,0,9,5.2,5.2,0,0,0,4.21,2.07,5.31,5.31,0,0,0,4.27-2.07A7,7,0,0,0,108.39,117.88Z"/><path class="cls-1" d="M146.22,127.06c0,.11-.1.16-.32.16s-.41,0-.73,0l-.74,0-.75,0c-.34,0-.59,0-.76,0s-.56-.67-.94-2-.78-2-1.18-2-1.17,0-2.55,0h-2.09c-1.46,0-2.29,0-2.5,0s-.65.71-1,2-.63,2-.83,2h-3c-.17,0-.26-.06-.26-.18a2.32,2.32,0,0,1,.18-.6l3.25-8.87q.41-1.08,2.49-6.19c.25-.57.58-1.42,1-2.56.1-.33.22-.5.34-.5a5,5,0,0,1,.74.07,6.82,6.82,0,0,0,.74.06,5.18,5.18,0,0,0,.73-.07,4.86,4.86,0,0,1,.7-.07c.08,0,.19.16.34.49q.32.74,3.13,8Q146.22,127,146.22,127.06Zm-6.17-7.31a22.58,22.58,0,0,0-1.19-3.44c-.77-2-1.31-3.28-1.63-3.9q-2.74,7-2.74,7.33c0,.3.33.48,1,.53h2.66C139.42,120.28,140.05,120.1,140.05,119.75Z"/><path class="cls-1" d="M163.9,127.12c0,.07-.07.1-.21.1s-.42,0-.77,0l-.76,0-.83,0c-.37,0-.64,0-.83,0a.49.49,0,0,1-.46-.33q-.43-.9-2.41-5.58a1.13,1.13,0,0,0-1-.58h-1.21c-1.21,0-1.94,0-2.17,0s-.28.25-.28.68c0,.61,0,1.54.09,2.77s.09,2.15.09,2.76c0,.19-.09.28-.27.28a7.89,7.89,0,0,1-.8-.06,8,8,0,0,0-.81-.06l-.69,0c-.31,0-.54,0-.69,0s-.33-.1-.33-.3c0-1,0-2.46.14-4.42s.14-3.44.14-4.42c0-2.79-.11-5.76-.31-8.92v-.22c0-.17.17-.26.55-.26.76,0,1.9,0,3.41-.06s2.65-.06,3.4-.06a7.45,7.45,0,0,1,4.72,1.4,5.31,5.31,0,0,1,2,4.4,7.43,7.43,0,0,1-.53,3.09,6,6,0,0,1-2.07,2.26c-.17.12-.25.23-.25.33s.53,1.3,1.58,3.53A31.77,31.77,0,0,1,163.9,127.12Zm-3.62-12c0-1.6-.46-2.66-1.38-3.2a7.86,7.86,0,0,0-3.67-.6c-1.43,0-2.16.12-2.19.35-.06.47-.09,1.75-.09,3.82V118l.17.06.78.06c.84,0,1.75.07,2.72.07Q160.28,118.19,160.28,115.1Z"/><path class="cls-1" d="M180.75,111.14c0,.23-.08.35-.23.35l-4.69-.16q-.12,4-.12,6.47c0,1,0,2.54.11,4.57s.11,3.56.11,4.57c0,.19-.13.28-.38.28s-.4,0-.73,0l-.74,0-.73,0c-.33,0-.57,0-.73,0a.29.29,0,0,1-.33-.33c0-1,0-2.52.13-4.54s.12-3.53.12-4.55q0-2.35-.14-6.47-3.42.21-5,.21c-.11,0-.16-.05-.16-.13a2.91,2.91,0,0,1,.12-.69c.1-.39.15-.62.17-.69a10.27,10.27,0,0,1,.19-1.29.23.23,0,0,1,.22-.17l.16,0q4.69.27,6.19.27c.88,0,2.32-.06,4.33-.2a12.05,12.05,0,0,0,1.71-.13c.23,0,.35.08.38.24a7.74,7.74,0,0,0,0,1.29c0,.11,0,.29,0,.53A4.65,4.65,0,0,1,180.75,111.14Z"/><path class="cls-1" d="M196.68,124.56a2.72,2.72,0,0,1-.11.61c-.08.33-.13.54-.15.61,0,.32-.08.78-.18,1.39a.32.32,0,0,1-.35.24,4.06,4.06,0,0,1-.5-.06,40.33,40.33,0,0,0-5-.23c-.65,0-1.62,0-2.92,0s-2.27,0-2.91,0c-.29,0-.44-.13-.44-.38,0-1,0-2.48.17-4.46s.16-3.47.16-4.46,0-2.88-.16-5.63c0-.7-.06-1.76-.14-3.16l0-.19c0-.2.11-.3.35-.3.62,0,1.54,0,2.78,0s2.16,0,2.78,0,1.48,0,2.66,0,2.06,0,2.65,0c.42,0,.64.13.68.38.18,1.17.28,1.89.28,2.17s-.1.31-.3.31c-.75,0-1.88,0-3.41-.13s-2.67-.12-3.43-.12a2.11,2.11,0,0,0-1.37.29,2.28,2.28,0,0,0-.29,1.44v2a5.25,5.25,0,0,0,0,.94c.08.27.31.41.69.41l.45,0h.45c1.73,0,3.28,0,4.66-.09.54,0,1.18-.06,1.91-.13.19,0,.28.06.28.24s0,.71-.1,1.29a12,12,0,0,0-.1,1.32c0,.16-.13.23-.4.23l-1.18-.09c-.49,0-1.6-.08-3.33-.08-1.46,0-2.38,0-2.77.06a.59.59,0,0,0-.61.55c0-.06,0,.28,0,1v2c0,.92.14,1.49.42,1.72a3,3,0,0,0,1.66.28H191c.62,0,2.35-.11,5.2-.32h.2Q196.68,124.2,196.68,124.56Z"/><path class="cls-1" d="M210.52,110c-.18.29-.42.73-.73,1.32-.1.27-.27.66-.52,1.17a.24.24,0,0,1-.21.12l-1.28-.47a6.35,6.35,0,0,0-2.12-.47c-1.63,0-2.44.71-2.44,2.14,0,.8.57,1.49,1.71,2.08,1.92,1,3,1.57,3.18,1.72a4.47,4.47,0,0,1,1.71,3.68,5.47,5.47,0,0,1-2.35,4.68,8.57,8.57,0,0,1-5.18,1.54c-.95,0-1.46-.11-1.53-.32s-.12-.83-.24-1.47c-.07-.27-.18-.66-.33-1.19a.66.66,0,0,1,0-.23c0-.12.06-.18.2-.18s.53,0,1,.06a9.29,9.29,0,0,0,1,.07q4.09,0,4.1-2.65a2.68,2.68,0,0,0-1.65-2.25c-2-1.15-3-1.75-3.09-1.79a4.44,4.44,0,0,1-1.67-3.63,5.11,5.11,0,0,1,1.62-4,5.85,5.85,0,0,1,4.08-1.43,10.14,10.14,0,0,1,2.43.35,6.87,6.87,0,0,1,2.26.92A1.06,1.06,0,0,1,210.52,110Z"/><path class="cls-1" d="M231.49,127.06c0,.11-.11.16-.32.16s-.41,0-.74,0l-.73,0-.76,0c-.33,0-.58,0-.75,0s-.56-.67-.95-2-.77-2-1.17-2-1.18,0-2.56,0h-2.09c-1.46,0-2.29,0-2.49,0s-.65.71-1,2-.64,2-.83,2h-3q-.27,0-.27-.18a2.53,2.53,0,0,1,.19-.6l3.24-8.87q.42-1.08,2.49-6.19c.25-.57.59-1.42,1-2.56.11-.33.22-.5.35-.5a5.29,5.29,0,0,1,.74.07,6.47,6.47,0,0,0,.74.06,5,5,0,0,0,.72-.07,5,5,0,0,1,.71-.07c.08,0,.19.16.33.49q.31.74,3.14,8Q231.49,127,231.49,127.06Zm-6.18-7.31a21.34,21.34,0,0,0-1.19-3.44c-.77-2-1.31-3.28-1.63-3.9-1.82,4.67-2.74,7.11-2.74,7.33s.34.48,1,.53h2.66C224.68,120.28,225.31,120.1,225.31,119.75Z"/><path class="cls-1" d="M251.48,108.93c0,1,0,2.55-.11,4.6s-.11,3.58-.11,4.61,0,2.4,0,4.32,0,3.36,0,4.32c0,.3-.11.44-.33.44a5.37,5.37,0,0,1-.6,0l-.6,0-.65,0c-.29,0-.5,0-.64,0s-.35-.14-.57-.44q-2.87-3.86-8.68-11.49c-.6-.78-.95-1.21-1.05-1.3s-.13.18-.13.54q0,2,.07,6.13t.06,6.12c0,.3-.09.44-.26.44s-.38,0-.69,0l-.69,0-.71,0c-.31,0-.55,0-.71,0s-.33-.09-.33-.26c0-1,.05-2.44.14-4.39s.14-3.43.14-4.41,0-3-.12-5.77c0-.73-.06-1.81-.13-3.26V109c0-.14.09-.21.31-.22.58,0,1,0,1.35,0,.13,0,.36,0,.71-.1a3.46,3.46,0,0,1,.69-.08c.08,0,.21.12.41.38q3,4.19,9.32,12.45c.19.23.36.43.52.6a21.32,21.32,0,0,0,.09-2.55c0-1.14,0-2.87-.13-5.16s-.12-4-.12-5.15c0-.3.09-.44.26-.44s.4,0,.73,0l.72,0,.75,0c.34,0,.59,0,.76,0A.26.26,0,0,1,251.48,108.93Z"/><path class="cls-1" d="M272.44,127.06c0,.11-.1.16-.31.16s-.42,0-.74,0l-.73,0-.76,0c-.33,0-.59,0-.75,0s-.57-.67-.95-2-.78-2-1.17-2-1.18,0-2.56,0h-2.09c-1.46,0-2.29,0-2.49,0s-.66.71-1,2-.63,2-.82,2h-3q-.27,0-.27-.18a2.11,2.11,0,0,1,.19-.6l3.24-8.87q.42-1.08,2.49-6.19c.25-.57.58-1.42,1-2.56.1-.33.22-.5.34-.5a5,5,0,0,1,.74.07,6.78,6.78,0,0,0,.75.06,5,5,0,0,0,.72-.07,5,5,0,0,1,.71-.07c.08,0,.19.16.33.49q.31.74,3.14,8Q272.44,127,272.44,127.06Zm-6.17-7.31a22.58,22.58,0,0,0-1.19-3.44c-.77-2-1.31-3.28-1.63-3.9q-2.74,7-2.74,7.33c0,.3.33.48,1,.53h2.66C265.64,120.28,266.27,120.1,266.27,119.75Z"/><path class="cls-1" d="M288.26,124.35a12.18,12.18,0,0,1-.2,2.63.44.44,0,0,1-.46.39q-1,0-2.94-.12c-1.31-.07-2.29-.11-2.94-.11l-2.77,0c-1.23,0-2.15,0-2.77,0a.29.29,0,0,1-.33-.33c0-1,0-2.41.1-4.36s.1-3.4.1-4.37-.05-2.56-.14-4.6-.14-3.58-.14-4.6q0-.3.33-.3l.73,0c.33,0,.57,0,.74,0s.41,0,.74,0l.74,0c.22,0,.32.09.32.26,0,.93,0,2.34-.1,4.22s-.11,3.3-.11,4.24v2.09c0,.94,0,1.64,0,2.1q0,2.94.24,2.94,4.88,0,7.37-.24l.61-.1a3.51,3.51,0,0,1,.61-.07C288.17,124.1,288.26,124.18,288.26,124.35Z"/><path class="cls-1" d="M208.91,42.13h28.34l-4,32.38A6.25,6.25,0,0,1,227,80h-7.86a6.24,6.24,0,0,1-6.2-5.47Z"/><path class="cls-2" d="M242.06,49.13a18.77,18.77,0,0,1-1,6.65c-.64,1.86-1.54,5-4,5a2.69,2.69,0,0,1-2.67-2.68v-.7a2.18,2.18,0,0,0-1.59-2.15,2.1,2.1,0,0,0-2.61,2.05v1a2.68,2.68,0,0,1-5,1.41l-.08-.13a1.83,1.83,0,0,0-.25-.35,2.67,2.67,0,0,0-2-.93c-2.1,0-2.49,2.68-4.62,2.68A2.67,2.67,0,0,1,216,59.66a.56.56,0,0,1-.07-.13,2.45,2.45,0,0,0-.26-.35,2.67,2.67,0,0,0-2-.93,2.6,2.6,0,0,0-1.95.88c-.76.85-1.3,1.63-2.56,1.63A2.65,2.65,0,0,1,206.57,59a18.68,18.68,0,0,1-2.48-9.33,19,19,0,0,1,38-.51Z"/><path class="cls-3" d="M204.09,32.35a18.81,18.81,0,0,0,1,6.65c.64,1.86,1.54,5,4,5a2.67,2.67,0,0,0,2.44-1.57,2.72,2.72,0,0,0,.24-1.1v-.7a2.17,2.17,0,0,1,1.58-2.15,2.11,2.11,0,0,1,2.62,2v1a2.68,2.68,0,0,0,5,1.41l.07-.14a2.18,2.18,0,0,1,.26-.34,2.67,2.67,0,0,1,2-.93c2.09,0,2.49,2.68,4.62,2.68a2.7,2.7,0,0,0,2.28-1.27c0-.05,0-.1.07-.14a2.18,2.18,0,0,1,.26-.34,2.65,2.65,0,0,1,2-.93,2.58,2.58,0,0,1,1.94.88c.76.85,1.31,1.62,2.56,1.62a2.66,2.66,0,0,0,2.53-1.78,18.79,18.79,0,0,0,2.48-9.34,19,19,0,0,0-38-.5Z"/></g></svg>