<svg xmlns="http://www.w3.org/2000/svg" viewBox="0 0 240 240"><title>icono</title><g id="Capa_1" data-name="Capa 1"><path d="M220,120a20,20,0,0,1-20,20h-84.7a2.9,2.9,0,0,0-.68,0,5,5,0,0,0-.17,10l.51,0,.51,0h18.74v.06l.78,0a15,15,0,0,1,0,30l-.78,0v0H115.34a2.9,2.9,0,0,0-.68,0,5,5,0,0,0,.34,10h.48a14.73,14.73,0,0,1,4.52.85,15,15,0,0,1,0,28.28,14.36,14.36,0,0,1-3.6.79c-.31,0-.61,0-.92,0-1.21,0-2.42-.12-3.63-.22A98.59,98.59,0,0,1,90,215.44C49.44,202.71,20,160,20,120c0-30,29.45-82.7,70-95.43a98.59,98.59,0,0,1,21.83-4.25c1.21-.1,2.42-.18,3.63-.22.31,0,.61,0,.92,0a14.36,14.36,0,0,1,3.6.79,15,15,0,0,1,0,28.28,14.73,14.73,0,0,1-4.52.85H115a5,5,0,0,0-.17,10h19.42v0l.78,0a15,15,0,1,1,0,30l-.78,0V90H115.56a4.24,4.24,0,0,0-.51,0,4.53,4.53,0,0,0-.52,0,5,5,0,0,0-.21,10,4.41,4.41,0,0,0,1.45,0H200A20,20,0,0,1,220,120Z"/></g></svg>