<svg xmlns="http://www.w3.org/2000/svg" viewBox="0 0 240 240"><title>icono</title><g id="Capa_1" data-name="Capa 1"><path d="M219.94,46.58V80C210,80,210,70,200,70s-10,10-20,10-10-10-20-10-10,10-20,10-10-10-20-10-10,10-20,10-10-10-20-10-10,10-20,10-10-10-20-10-10,9.92-19.9,10V46.58A26.55,26.55,0,0,1,46.49,20h146.9A26.55,26.55,0,0,1,219.94,46.58Z"/><path d="M219.94,116.25v33.44c-9.92-.07-9.95-10-19.93-10s-10,10-20,10-10-10-20-10-10,10-20,10-10-10-20-10-10,10-20,10-10-10-20-10-10,10-20,10-10-10-20-10-10,9.92-19.9,10V116.25A26.56,26.56,0,0,1,46.49,89.69h146.9A26.56,26.56,0,0,1,219.94,116.25Z"/><path d="M219.94,186.66v33.45c-9.92-.07-9.95-10-19.93-10s-10,10-20,10-10-10-20-10-10,10-20,10-10-10-20-10-10,10-20,10-10-10-20-10-10,10-20,10-10-10-20-10-10,9.92-19.9,10V186.66a26.55,26.55,0,0,1,26.55-26.55h146.9A26.55,26.55,0,0,1,219.94,186.66Z"/></g></svg>